<svg width="18" height="17" viewBox="0 0 18 17" fill="none" xmlns="http://www.w3.org/2000/svg">
<path d="M13.6333 16.5C13.5 16.5005 13.3686 16.4691 13.25 16.4083L8.99998 14.1833L4.74999 16.4083C4.61198 16.4809 4.45638 16.5133 4.30088 16.5018C4.14538 16.4904 3.99622 16.4355 3.87034 16.3435C3.74447 16.2515 3.64694 16.126 3.58883 15.9813C3.53073 15.8366 3.51438 15.6785 3.54165 15.525L4.37498 10.8333L0.941652 7.5C0.834533 7.3931 0.758545 7.25905 0.721842 7.11224C0.685139 6.96543 0.689106 6.81139 0.733319 6.66666C0.781619 6.51856 0.870466 6.38696 0.989777 6.2868C1.10909 6.18663 1.25409 6.12192 1.40832 6.1L6.15832 5.40833L8.24999 1.13333C8.31822 0.992438 8.42477 0.873615 8.55741 0.790475C8.69006 0.707335 8.84344 0.663239 8.99998 0.663239C9.15653 0.663239 9.30991 0.707335 9.44256 0.790475C9.5752 0.873615 9.68175 0.992438 9.74998 1.13333L11.8667 5.4L16.6167 6.09166C16.7709 6.11359 16.9159 6.1783 17.0352 6.27846C17.1545 6.37863 17.2434 6.51023 17.2917 6.65833C17.3359 6.80306 17.3398 6.9571 17.3031 7.10391C17.2664 7.25072 17.1904 7.38477 17.0833 7.49166L13.65 10.825L14.4833 15.5167C14.5131 15.6729 14.4975 15.8344 14.4384 15.982C14.3794 16.1297 14.2793 16.2574 14.15 16.35C13.9991 16.4557 13.8174 16.5085 13.6333 16.5Z" fill="#FCC419"/>
</svg>
